<?xml version="1.0" encoding="UTF-8"?>
<svg id="Layer_2" data-name="Layer 2" xmlns="http://www.w3.org/2000/svg" xmlns:xlink="http://www.w3.org/1999/xlink" viewBox="0 0 792 333.51">
  <defs>
    <style>
      .cls-1 {
        fill: url(#linear-gradient-2);
      }

      .cls-2 {
        fill: url(#linear-gradient-10);
      }

      .cls-3 {
        fill: url(#linear-gradient-4);
      }

      .cls-4 {
        fill: url(#linear-gradient-3);
      }

      .cls-5 {
        fill: url(#linear-gradient-5);
      }

      .cls-6 {
        fill: url(#linear-gradient-8);
      }

      .cls-7 {
        fill: url(#linear-gradient-7);
      }

      .cls-8 {
        fill: url(#linear-gradient-9);
      }

      .cls-9 {
        fill: url(#linear-gradient-6);
      }

      .cls-10 {
        fill: url(#linear-gradient);
      }
    </style>
    <linearGradient id="linear-gradient" x1="9.09" y1="160.6" x2="77.78" y2="148.93" gradientUnits="userSpaceOnUse">
      <stop offset=".32" stop-color="#2566ae"/>
      <stop offset=".69" stop-color="#007dbf"/>
    </linearGradient>
    <linearGradient id="linear-gradient-2" x1="32.34" y1="119.13" x2="108.94" y2="119.13" gradientUnits="userSpaceOnUse">
      <stop offset="0" stop-color="#2566ae"/>
      <stop offset="1" stop-color="#007dbf"/>
    </linearGradient>
    <linearGradient id="linear-gradient-3" x1="116.72" y1="114.66" x2="170.21" y2="114.66" gradientUnits="userSpaceOnUse">
      <stop offset="0" stop-color="#3d4f9f"/>
      <stop offset=".27" stop-color="#2367af"/>
      <stop offset=".72" stop-color="#007abd"/>
    </linearGradient>
    <linearGradient id="linear-gradient-4" x1="104.72" y1="154.87" x2="193.32" y2="154.87" xlink:href="#linear-gradient-3"/>
    <linearGradient id="linear-gradient-5" x1="95.31" y1="197.59" x2="173.4" y2="197.59" xlink:href="#linear-gradient-3"/>
    <linearGradient id="linear-gradient-6" x1="34.65" y1="176.43" x2="88.8" y2="200.27" gradientUnits="userSpaceOnUse">
      <stop offset="0" stop-color="#3d4f9f"/>
      <stop offset=".27" stop-color="#2367af"/>
      <stop offset=".85" stop-color="#007dbf"/>
    </linearGradient>
    <linearGradient id="linear-gradient-7" x1="230.19" y1="167.03" x2="240.87" y2="167.03" gradientUnits="userSpaceOnUse">
      <stop offset=".35" stop-color="#2566ae"/>
      <stop offset=".73" stop-color="#007dbf"/>
    </linearGradient>
    <linearGradient id="linear-gradient-8" x1="265.11" y1="154.69" x2="402.77" y2="154.69" gradientUnits="userSpaceOnUse">
      <stop offset=".13" stop-color="#2f4d9e"/>
      <stop offset=".41" stop-color="#2566ae"/>
      <stop offset=".73" stop-color="#007dbf"/>
    </linearGradient>
    <linearGradient id="linear-gradient-9" x1="429.12" y1="154.78" x2="518.9" y2="154.78" xlink:href="#linear-gradient-8"/>
    <linearGradient id="linear-gradient-10" x1="539.42" y1="154.78" x2="629.2" y2="154.78" xlink:href="#linear-gradient-8"/>
  </defs>
  <g>
    <path class="cls-10" d="M23.15,125.77c18.04,8,36.09,16,54.13,24-4.94,11.4-9.87,22.81-14.81,34.21-18.29-7.32-36.57-14.64-54.86-21.96,5.18-12.09,10.36-24.17,15.54-36.26Z"/>
    <path class="cls-1" d="M107.91,92.57c-25.19,8.34-50.38,16.68-75.57,25.02,19.4,9.36,38.81,18.72,58.21,28.09,6.13-2.21,12.26-4.43,18.38-6.64l-1.02-46.47Z"/>
    <path class="cls-4" d="M116.72,93.34v42.64l53.49-19.79-53.49-22.85Z"/>
    <path class="cls-3" d="M104.72,153.34c24.68-8.68,49.36-17.36,74.04-26.04,4.85,11.15,9.7,22.3,14.55,33.45-24.43,7.23-48.85,14.47-73.28,21.7-5.11-9.7-10.21-19.4-15.32-29.11Z"/>
    <path class="cls-5" d="M97.06,157.26c5.62,13.99,11.23,27.99,16.85,41.98,19.83-7.44,39.66-14.88,59.49-22.32v35.49c-25.87,8.51-51.74,17.02-77.62,25.53-.16-26.9-.32-53.79-.48-80.69.59,0,1.17,0,1.76.01Z"/>
    <path class="cls-9" d="M83.3,157.31c.81-.02,1.62-.04,2.43-.06.02,26.85.04,53.7.06,80.55-1.6-.02-3.19-.04-4.79-.06-18.1-7.71-36.2-15.42-54.3-23.13l-.09-35.83c14.08,6.88,28.16,13.76,42.23,20.64,4.82-14.04,9.63-28.07,14.45-42.11Z"/>
  </g>
  <rect class="cls-7" x="230.19" y="5.71" width="7.02" height="322.64"/>
  <g>
    <path class="cls-6" d="M275.64,88.22h37.79c5.7,26.98,11.4,53.96,17.11,80.94h5.93c5.77-26.89,11.54-53.79,17.31-80.68h39.57c3.14,44.22,6.29,88.44,9.43,132.66-10.09,0-20.18.01-30.28.02-.76-33.28-1.52-66.56-2.28-99.84h-2.43c-6.41,26.13-12.81,52.26-19.22,78.39-10.16-.03-20.31-.06-30.47-.09-5.79-26.1-11.58-52.2-17.37-78.3h-2.03c-1.59,33.28-3.18,66.55-4.77,99.83h-28.82c3.51-44.31,7.02-88.62,10.53-132.94Z"/>
    <path class="cls-8" d="M518.61,127.41c-2.19-18.24-16.78-34.01-36.49-38.85-17.66-.02-35.33-.03-53-.05.03,44.18.06,88.36.09,132.54h28.34c-.03-14.19-.06-28.39-.09-42.58,6.87.02,13.73.03,20.6.04,26.11-4.78,43.3-28.21,40.55-51.1ZM482.88,154.03c-.5.46-.84.55-1.53.55-8.3.02-15.51-.02-23.81,0,.02-15.82-.02-28.94,0-44.77,7.55.02,14.83-.01,22.39,0,.56,0,.55-.07,1.01.26,2.81,2.01,11.87,9.74,11.87,22.23,0,13.79-7.13,19.17-9.94,21.73Z"/>
    <path class="cls-2" d="M628.91,127.41c-2.19-18.24-16.78-34.01-36.49-38.85-17.66-.02-35.33-.03-53-.05.03,44.18.06,88.36.09,132.54h28.34c-.03-14.19-.06-28.39-.09-42.58,6.87.02,13.73.03,20.6.04,26.11-4.78,43.3-28.21,40.55-51.1ZM593.17,154.03c-.5.46-.84.55-1.53.55-8.3.02-15.51-.02-23.81,0,.02-15.82-.02-28.94,0-44.77,7.55.02,14.83-.01,22.39,0,.56,0,.55-.07,1.01.26,2.81,2.01,11.87,9.74,11.87,22.23,0,13.79-7.13,19.17-9.94,21.73Z"/>
  </g>
  <g>
    <g>
      <path d="M280.81,260.91c-.11-2.44-.25-5.38-.22-7.92h-.08c-.62,2.3-1.4,4.84-2.24,7.22l-2.74,8.18h-2.66l-2.52-8.06c-.73-2.41-1.4-4.98-1.9-7.34h-.06c-.08,2.46-.2,5.46-.34,8.04l-.42,7.59h-3.22l1.26-18.87h4.54l2.46,7.59c.67,2.21,1.26,4.45,1.74,6.55h.08c.5-2.04,1.15-4.37,1.88-6.58l2.6-7.56h4.48l1.09,18.87h-3.36l-.36-7.7Z"/>
      <path d="M305.34,258.98c0,6.33-3.84,9.94-9.04,9.94s-8.68-4.06-8.68-9.6,3.64-9.88,8.96-9.88,8.76,4.17,8.76,9.55ZM291.26,259.26c0,3.84,1.93,6.89,5.24,6.89s5.21-3.08,5.21-7.03c0-3.56-1.76-6.92-5.21-6.92s-5.24,3.16-5.24,7.06Z"/>
      <path d="M308.87,249.99c1.51-.25,3.44-.39,5.49-.39,3.53,0,5.96.73,7.7,2.18,1.82,1.48,2.94,3.72,2.94,6.94s-1.15,5.88-2.94,7.5c-1.88,1.71-4.87,2.58-8.54,2.58-2.02,0-3.53-.11-4.65-.25v-18.56ZM312.31,265.98c.48.08,1.2.08,1.9.08,4.48.03,7.14-2.44,7.14-7.22.03-4.17-2.38-6.55-6.69-6.55-1.09,0-1.88.08-2.35.2v13.5Z"/>
      <path d="M339.11,260.24h-7.11v5.54h7.95v2.83h-11.4v-18.87h10.98v2.83h-7.53v4.87h7.11v2.8Z"/>
      <path d="M343.53,249.99c1.29-.22,3.22-.39,5.21-.39,2.72,0,4.56.45,5.82,1.51,1.04.87,1.62,2.18,1.62,3.78,0,2.44-1.65,4.09-3.42,4.73v.08c1.34.5,2.16,1.82,2.63,3.64.59,2.35,1.09,4.54,1.48,5.26h-3.56c-.28-.56-.73-2.1-1.26-4.45-.53-2.46-1.43-3.25-3.39-3.3h-1.74v7.76h-3.42v-18.62ZM346.95,258.34h2.04c2.32,0,3.78-1.23,3.78-3.11,0-2.07-1.46-3.02-3.7-3.02-1.09,0-1.79.08-2.13.17v5.96Z"/>
      <path d="M360.02,268.61v-18.87h3.92l4.87,8.09c1.26,2.1,2.35,4.28,3.22,6.33h.06c-.22-2.52-.31-4.96-.31-7.84v-6.58h3.19v18.87h-3.56l-4.93-8.29c-1.2-2.07-2.46-4.4-3.39-6.52l-.08.03c.14,2.44.17,4.93.17,8.04v6.75h-3.16Z"/>
      <path d="M385.87,249.99c1.23-.22,2.94-.39,5.26-.39,2.52,0,4.37.53,5.57,1.54,1.12.92,1.85,2.41,1.85,4.17s-.56,3.28-1.62,4.28c-1.37,1.37-3.53,2.02-5.96,2.02-.64,0-1.23-.03-1.68-.11v7.11h-3.42v-18.62ZM389.28,258.78c.42.11.98.14,1.68.14,2.58,0,4.14-1.26,4.14-3.47s-1.46-3.22-3.84-3.22c-.95,0-1.62.08-1.99.17v6.38Z"/>
      <path d="M403.87,263.26l-1.62,5.35h-3.56l6.05-18.87h4.4l6.13,18.87h-3.7l-1.71-5.35h-5.99ZM409.27,260.66l-1.48-4.65c-.36-1.15-.67-2.44-.95-3.53h-.06c-.28,1.09-.56,2.41-.9,3.53l-1.46,4.65h4.84Z"/>
      <path d="M418.46,249.99c1.23-.22,2.94-.39,5.26-.39,2.52,0,4.37.53,5.57,1.54,1.12.92,1.85,2.41,1.85,4.17s-.56,3.28-1.62,4.28c-1.37,1.37-3.53,2.02-5.96,2.02-.64,0-1.23-.03-1.68-.11v7.11h-3.42v-18.62ZM421.87,258.78c.42.11.98.14,1.68.14,2.58,0,4.14-1.26,4.14-3.47s-1.46-3.22-3.84-3.22c-.95,0-1.62.08-1.99.17v6.38Z"/>
      <path d="M445.23,260.24h-7.11v5.54h7.95v2.83h-11.4v-18.87h10.98v2.83h-7.53v4.87h7.11v2.8Z"/>
      <path d="M449.65,249.99c1.29-.22,3.22-.39,5.21-.39,2.72,0,4.56.45,5.82,1.51,1.04.87,1.62,2.18,1.62,3.78,0,2.44-1.65,4.09-3.42,4.73v.08c1.34.5,2.16,1.82,2.63,3.64.59,2.35,1.09,4.54,1.48,5.26h-3.56c-.28-.56-.73-2.1-1.26-4.45-.53-2.46-1.43-3.25-3.39-3.3h-1.74v7.76h-3.42v-18.62ZM453.07,258.34h2.04c2.32,0,3.78-1.23,3.78-3.11,0-2.07-1.46-3.02-3.7-3.02-1.09,0-1.79.08-2.13.17v5.96Z"/>
      <path d="M472.5,249.99c1.23-.22,2.94-.39,5.26-.39,2.52,0,4.37.53,5.57,1.54,1.12.92,1.85,2.41,1.85,4.17s-.56,3.28-1.62,4.28c-1.37,1.37-3.53,2.02-5.96,2.02-.64,0-1.23-.03-1.68-.11v7.11h-3.42v-18.62ZM475.91,258.78c.42.11.98.14,1.68.14,2.58,0,4.14-1.26,4.14-3.47s-1.46-3.22-3.84-3.22c-.95,0-1.62.08-1.99.17v6.38Z"/>
      <path d="M488.71,249.99c1.29-.22,3.22-.39,5.21-.39,2.72,0,4.56.45,5.82,1.51,1.04.87,1.62,2.18,1.62,3.78,0,2.44-1.65,4.09-3.42,4.73v.08c1.34.5,2.16,1.82,2.63,3.64.59,2.35,1.09,4.54,1.48,5.26h-3.56c-.28-.56-.73-2.1-1.26-4.45-.53-2.46-1.43-3.25-3.39-3.3h-1.74v7.76h-3.42v-18.62ZM492.12,258.34h2.04c2.32,0,3.78-1.23,3.78-3.11,0-2.07-1.46-3.02-3.7-3.02-1.09,0-1.79.08-2.13.17v5.96Z"/>
      <path d="M521.94,258.98c0,6.33-3.84,9.94-9.04,9.94s-8.68-4.06-8.68-9.6,3.64-9.88,8.96-9.88,8.76,4.17,8.76,9.55ZM507.86,259.26c0,3.84,1.93,6.89,5.24,6.89s5.21-3.08,5.21-7.03c0-3.56-1.76-6.92-5.21-6.92s-5.24,3.16-5.24,7.06Z"/>
      <path d="M525.47,249.99c1.51-.25,3.44-.39,5.49-.39,3.53,0,5.96.73,7.7,2.18,1.82,1.48,2.94,3.72,2.94,6.94s-1.15,5.88-2.94,7.5c-1.88,1.71-4.87,2.58-8.54,2.58-2.02,0-3.53-.11-4.65-.25v-18.56ZM528.92,265.98c.48.08,1.2.08,1.9.08,4.48.03,7.14-2.44,7.14-7.22.03-4.17-2.38-6.55-6.69-6.55-1.09,0-1.88.08-2.35.2v13.5Z"/>
      <path d="M548.57,249.74v11c0,3.7,1.54,5.4,3.86,5.4,2.49,0,3.98-1.71,3.98-5.4v-11h3.44v10.78c0,5.82-3,8.4-7.53,8.4s-7.2-2.44-7.2-8.37v-10.81h3.44Z"/>
      <path d="M577.89,268.05c-.81.42-2.6.84-4.87.84-5.99,0-9.63-3.75-9.63-9.49,0-6.22,4.31-9.97,10.08-9.97,2.27,0,3.89.48,4.59.84l-.76,2.74c-.9-.39-2.13-.73-3.7-.73-3.84,0-6.61,2.41-6.61,6.94,0,4.14,2.44,6.8,6.58,6.8,1.4,0,2.86-.28,3.75-.7l.56,2.72Z"/>
      <path d="M585.56,252.62h-5.38v-2.88h14.25v2.88h-5.43v15.99h-3.44v-15.99Z"/>
      <path d="M607.01,249.74v18.87h-3.44v-18.87h3.44Z"/>
      <path d="M611.51,268.61v-18.87h3.92l4.87,8.09c1.26,2.1,2.35,4.28,3.22,6.33h.06c-.22-2.52-.31-4.96-.31-7.84v-6.58h3.19v18.87h-3.56l-4.93-8.29c-1.2-2.07-2.46-4.4-3.39-6.52l-.08.03c.14,2.44.17,4.93.17,8.04v6.75h-3.16Z"/>
      <path d="M631,249.99c1.51-.25,3.44-.39,5.49-.39,3.53,0,5.96.73,7.7,2.18,1.82,1.48,2.94,3.72,2.94,6.94s-1.15,5.88-2.94,7.5c-1.88,1.71-4.87,2.58-8.54,2.58-2.02,0-3.53-.11-4.65-.25v-18.56ZM634.45,265.98c.48.08,1.2.08,1.9.08,4.48.03,7.14-2.44,7.14-7.22.03-4.17-2.38-6.55-6.69-6.55-1.09,0-1.88.08-2.35.2v13.5Z"/>
      <path d="M654.1,249.74v11c0,3.7,1.54,5.4,3.86,5.4,2.49,0,3.98-1.71,3.98-5.4v-11h3.44v10.78c0,5.82-3,8.4-7.53,8.4s-7.2-2.44-7.2-8.37v-10.81h3.44Z"/>
      <path d="M669.81,264.86c1.12.64,2.8,1.2,4.56,1.2,2.21,0,3.44-1.04,3.44-2.58,0-1.43-.95-2.27-3.36-3.14-3.11-1.12-5.1-2.77-5.1-5.49,0-3.08,2.58-5.43,6.66-5.43,2.04,0,3.56.45,4.54.95l-.84,2.77c-.67-.36-1.99-.9-3.75-.9-2.18,0-3.14,1.18-3.14,2.27,0,1.46,1.09,2.13,3.61,3.11,3.28,1.23,4.87,2.88,4.87,5.6,0,3.02-2.3,5.66-7.17,5.66-1.99,0-4.06-.56-5.1-1.18l.76-2.86Z"/>
      <path d="M688.6,252.62h-5.38v-2.88h14.25v2.88h-5.43v15.99h-3.44v-15.99Z"/>
      <path d="M700.25,249.99c1.29-.22,3.22-.39,5.21-.39,2.72,0,4.56.45,5.82,1.51,1.04.87,1.62,2.18,1.62,3.78,0,2.44-1.65,4.09-3.42,4.73v.08c1.34.5,2.16,1.82,2.63,3.64.59,2.35,1.09,4.54,1.48,5.26h-3.56c-.28-.56-.73-2.1-1.26-4.45-.53-2.46-1.43-3.25-3.39-3.3h-1.74v7.76h-3.42v-18.62ZM703.66,258.34h2.04c2.32,0,3.78-1.23,3.78-3.11,0-2.07-1.46-3.02-3.7-3.02-1.09,0-1.79.08-2.13.17v5.96Z"/>
      <path d="M720.6,268.61v-7.87l-5.96-11h3.92l2.27,4.84c.64,1.4,1.12,2.46,1.62,3.75h.06c.48-1.2,1.01-2.38,1.65-3.75l2.27-4.84h3.89l-6.27,10.92v7.95h-3.44Z"/>
      <path d="M739.33,249.74h3.44v15.99h7.76v2.88h-11.2v-18.87Z"/>
      <path d="M753.7,249.74h3.44v15.99h7.76v2.88h-11.2v-18.87Z"/>
      <path d="M780.49,268.05c-.81.42-2.6.84-4.87.84-5.99,0-9.63-3.75-9.63-9.49,0-6.22,4.31-9.97,10.08-9.97,2.27,0,3.89.48,4.59.84l-.76,2.74c-.9-.39-2.13-.73-3.7-.73-3.84,0-6.61,2.41-6.61,6.94,0,4.14,2.44,6.8,6.58,6.8,1.4,0,2.86-.28,3.75-.7l.56,2.72Z"/>
    </g>
    <g>
      <path d="M270.2,296.76c-2.48,0-3.7,1.04-3.7,1.67,0,2.35,1.65,6.68,2.89,11.41.14.52.27,1.35.27,2.01,0,1.15-.25,2.23-.52,3.31l-.54-.07c-.04-2.66-1.85-7.19-3.29-11.91-.23-.77-.43-1.87-.43-2.59,0-1.02.2-2.01.59-2.98.47-1.26,1.13-2.32,2.03-2.93-.18-.99-.34-2.12-.34-2.93,0-.92.65-2.17,1.26-2.71.61-.54,1.31-.92,2.1-.92,1.04,0,1.98.29,2.84.99,1.4,1.17,2.55,2.64,3.45,4.4.18.38.29.99.29,1.44,0,.74-.41,1.71-.77,2.39-2.05-.32-4.08-.59-6.13-.59ZM274.71,294.19c-1.29-1.71-2.66-3.38-4.8-3.38-.45,0-.92.09-1.38.25l.07,1.17c-.14.83-.36,1.65-.56,2.17.79-.27,1.92-.41,3.07-.41.77,0,2.23.16,3.52.45l.09-.25Z"/>
      <path d="M283.71,301.02c-1.1,0-1.94-.77-1.94-2.03,0-1.1.83-1.96,1.98-1.96s1.96.86,1.96,1.96c0,1.26-.81,2.03-1.96,2.03h-.04Z"/>
      <path d="M295.86,296.76c-2.48,0-3.7,1.04-3.7,1.67,0,2.35,1.65,6.68,2.89,11.41.14.52.27,1.35.27,2.01,0,1.15-.25,2.23-.52,3.31l-.54-.07c-.04-2.66-1.85-7.19-3.29-11.91-.23-.77-.43-1.87-.43-2.59,0-1.02.2-2.01.59-2.98.47-1.26,1.13-2.32,2.03-2.93-.18-.99-.34-2.12-.34-2.93,0-.92.65-2.17,1.26-2.71.61-.54,1.31-.92,2.1-.92,1.04,0,1.98.29,2.84.99,1.4,1.17,2.55,2.64,3.45,4.4.18.38.29.99.29,1.44,0,.74-.41,1.71-.77,2.39-2.05-.32-4.08-.59-6.13-.59ZM300.37,294.19c-1.29-1.71-2.66-3.38-4.8-3.38-.45,0-.92.09-1.38.25l.07,1.17c-.14.83-.36,1.65-.56,2.17.79-.27,1.92-.41,3.07-.41.77,0,2.23.16,3.52.45l.09-.25Z"/>
      <path d="M309.37,301.02c-1.1,0-1.94-.77-1.94-2.03,0-1.1.83-1.96,1.98-1.96s1.96.86,1.96,1.96c0,1.26-.81,2.03-1.96,2.03h-.04Z"/>
      <path d="M317.35,294.5c.07,1.94.88,3.47,3.7,3.47,1.76,0,3.25-.54,4.89-1.47.29-.16.45-.36.45-.54,0-1.22-.79-2.82-2.12-4.28-1.29-1.38-3-2.59-4.6-3.41-.54-.27-.72-.56-.72-.83,0-.56.63-1.74,1.15-2.57l.18-.02c1.83,1.13,3.88,2.8,5.39,4.67,1.38,1.71,2.23,3.45,2.23,5.34,0,1.4-.36,2.73-.95,3.95-2.01,1.2-4.15,2.1-6.27,2.1-2.57,0-4.33-1.42-4.33-4.76,0-.36,0-.92.11-1.65h.88ZM319.81,277.39c.92.68,1.83,1.49,2.71,2.41-.5.81-1.1,1.56-1.87,2.21-.88-.83-1.76-1.56-2.66-2.32.61-.81,1.22-1.6,1.83-2.3Z"/>
      <path d="M349.99,298.5c-2.37,0-4.1-.83-4.1-2.64,0-.65.23-1.56.72-2.64.9-1.96,3.34-4.06,7.22-6.2l-.14-1.69c.56-.65,1.17-1.31,1.78-1.85h.25c.09,3.5.11,7.01.14,10.51,0,1.53.18,2.59.86,3.18.52.45,1.38.59,2.37.59h.54v2.89h-.5c-2.21,0-3.81-.59-4.67-3.13-1.29.56-2.71.99-4.47.99ZM353.98,289.52c-4.01,2.07-6.11,3.74-6.11,4.94,0,.88,1.35,1.26,2.89,1.26.97,0,2.01-.2,3.34-.63l-.11-5.57ZM351.32,281.54c-.92-.88-1.74-1.6-2.64-2.35.59-.81,1.22-1.56,1.78-2.14.92.72,1.69,1.47,2.57,2.41-.63.9-1.08,1.49-1.71,2.07ZM355.67,281.24c-.92-.88-1.74-1.6-2.64-2.35.59-.81,1.22-1.56,1.78-2.14.92.72,1.69,1.47,2.57,2.41-.63.9-1.08,1.49-1.71,2.07Z"/>
      <path d="M360.12,297.75c1.74,0,3.54-.7,3.88-1.98l.65-2.44,1.56-1.13.14.16c-.32,1.15-.5,2.12-.5,2.62,0,.79.2,1.44.74,1.87.72.59,1.6.9,2.8.9h.41v2.89h-.52c-2.21,0-3.88-.61-4.65-2.3h-.09c-.77,1.51-2.55,2.3-4.49,2.3h-.43c-1.24,0-1.58-.9-1.58-1.51,0-.54.36-1.38,1.58-1.38h.5ZM362.66,309.64c-.92-.88-1.74-1.6-2.64-2.34.59-.81,1.22-1.56,1.78-2.14.92.72,1.69,1.47,2.57,2.41-.63.9-1.08,1.49-1.71,2.07ZM367.02,309.34c-.92-.88-1.74-1.6-2.64-2.35.59-.81,1.22-1.56,1.78-2.14.92.72,1.69,1.47,2.57,2.41-.63.9-1.08,1.49-1.71,2.07Z"/>
      <path d="M371.68,297.75c1.94,0,3.63-.07,4.92-.45,1.44-.43,2.66-1.29,2.66-1.87,0-.16,0-.34-.05-.5-.81.09-1.74.09-2.55.09-2.62,0-4.62-.7-5.41-2.44-.2-.47-.34-1.01-.34-1.62,0-1.67.61-3.32,1.69-4.44.9-.92,1.89-1.51,2.91-1.51,1.83,0,3.29,1.74,4.31,4.47.56,1.49.95,3.2.95,5.37,0,1.44-.34,2.66-1.1,3.56-1.42,1.62-4.04,2.23-8.05,2.23h-1.83c-1.24,0-1.58-.9-1.58-1.51,0-.54.36-1.38,1.58-1.38h1.89ZM372.43,282.89c-.92-.88-1.74-1.6-2.64-2.35.59-.81,1.22-1.56,1.78-2.14.92.72,1.69,1.47,2.57,2.41-.63.9-1.08,1.49-1.71,2.07ZM375.02,287.96c-1.49,0-2.71,1.15-2.71,2.01,0,1.83,2.98,2.39,6.54,2.37-.45-2.14-2.01-4.38-3.83-4.38ZM376.78,282.6c-.92-.88-1.74-1.6-2.64-2.35.59-.81,1.22-1.56,1.78-2.14.92.72,1.69,1.47,2.57,2.41-.63.9-1.08,1.49-1.71,2.07Z"/>
      <path d="M389.7,289l1.6,3.04c.59,1.13,1.13,2.35,1.13,4.28v2.48c0,2.01-1.08,4.15-2.84,6.27-1.38,1.44-2.59,2.05-3.72,2.05-1.67,0-3.59-.61-5.8-1.74l.25-.77c.7.23,1.51.41,2.5.41,3.18-.02,6.43-2.75,7.92-6.09.18-.38.25-.74.25-.99,0-.38-.18-.81-.32-1.2-.81-1.8-1.71-3.45-2.71-4.96.52-.97,1.04-1.89,1.6-2.82l.14.02Z"/>
      <path d="M409.41,297.75v2.89h-1.87c-.11,1.42-.77,3.2-1.71,4.62-1.74,2.64-4.24,3.86-5.43,3.86-2.05,0-4.33-.95-6.5-2.28l.38-.74c.88.47,1.96.81,3.31.81,2.28,0,4.33-1.13,6.27-3.11,1.08-1.1,1.83-2.01,2.12-3.16h-1.11c-4.6,0-6.95-1.47-6.95-4.62,0-1.53.5-2.71,1.15-3.63.86-1.24,2.05-2.17,3.47-2.17,2.07,0,4.22,2.91,4.85,7.53h2.01ZM404.29,294.46c-.72-.81-1.56-1.26-2.39-1.26-1.26,0-2.55,1.08-2.55,1.98,0,1.15,1.06,1.83,2.46,2.23,1.24.34,2.59.34,4.06.34-.25-1.26-.81-2.46-1.58-3.29Z"/>
      <path d="M409.91,297.75c.72,0,1.56-.09,2.53-.61.79-.45,1.2-1.26,1.2-2.44-.05-3.61-.29-7.56-.65-11.71-.09-1.04-.23-1.98-.23-2.82,0-.5.23-1.01.68-1.51.32-.38.74-.81,1.24-1.24l.16.11c-.04,1.47.65,3.23,1.83,5.16-.41.38-.88.77-1.42,1.15.09,2.59.29,5.32.29,7.83s-.25,4.31-.9,5.66c-.47,1.15-1.02,2.1-2.05,2.62-.88.45-1.94.68-2.82.68h-.34c-1.24,0-1.58-.9-1.58-1.51,0-.54.36-1.38,1.58-1.38h.5Z"/>
      <path d="M421.48,301.02c.23-1.42.25-3.02.25-4.51v-2.21c0-4.13-.45-10.13-.81-14.03.63-.81,1.51-1.76,2.21-2.39l.2.07c.47,4.92.59,10.62.59,15.88,0,1.38-.04,2.73-.16,3.72-.07,1.24-.68,2.19-1.98,3.63l-.29-.16Z"/>
      <path d="M453.57,301.54c-6.25,0-11.05-2.3-11.05-7.85,0-1.83.36-3.63,1.33-5.46l.9.38c-.43,1.29-.65,2.44-.65,3.43,0,4.56,4.49,6.43,10.15,6.43,2.64,0,5.21-.38,7.71-.97,1.04-.25,2.05-.52,2.98-.92.18-.07.22-.18.22-.25,0-1.06-1.08-3.27-2.25-5.57.54-.97,1.11-1.83,1.69-2.55h.11c1.04,1.83,2.25,4.65,2.25,6.88,0,1.69-.56,2.71-1.2,3.77-1.96,1.2-7.74,2.68-12.2,2.68ZM452.69,286.5c-.92-.88-1.74-1.6-2.64-2.35.59-.81,1.22-1.56,1.78-2.14.92.72,1.69,1.47,2.57,2.41-.63.9-1.08,1.49-1.71,2.07ZM457.05,286.2c-.92-.88-1.74-1.6-2.64-2.35.59-.81,1.22-1.56,1.78-2.14.92.72,1.69,1.47,2.57,2.41-.63.9-1.08,1.49-1.71,2.07Z"/>
      <path d="M477.82,300.64h-.25c-1.78,0-2.93-.36-3.86-1.29-1.38-1.4-1.4-3-1.4-6.31,0-4.29-.25-8.77-.59-13.55.77-.83,1.47-1.58,2.12-2.1l.16.09c.36,4.94.36,10.78.36,16.33v1.29c0,1.44.81,2.1,1.69,2.41.56.2,1.15.25,1.44.25h.32v2.89Z"/>
      <path d="M491.26,293.58c-2.62-.97-5.01-1.58-7.08-1.58-1.29,0-2.23.41-2.86,1.13l.27,1.13-.68,2.03h-.23l-1.11-2.98c.18-2.5,2.19-4.06,4.89-4.06,1.51,0,3.83.52,7.4,1.94,1.08.43,2.44.74,3.86.74h1.96l.04.04-1.4,2.32c-1.8,0-3.07.38-3.81.86l-3.77,2.46c-3.13,2.01-6.25,3.02-9.9,3.02h-1.04c-1.24,0-1.58-.9-1.58-1.51,0-.54.36-1.38,1.58-1.38h1.38c3.65,0,7.4-1.29,12.04-4.08l.02-.09ZM486.07,304c.92.68,1.83,1.49,2.71,2.41-.5.81-1.11,1.56-1.87,2.21-.88-.83-1.76-1.56-2.66-2.32.61-.81,1.22-1.6,1.83-2.3ZM493.78,295.11l.07.02c.09,1.92,1.67,2.62,3.99,2.62h.61v2.89h-.7c-2.91,0-4.85-1.01-4.85-3.72,0-.43.02-.83.07-1.26l.81-.54Z"/>
      <path d="M498.95,297.75c1.74,0,3.54-.7,3.88-1.98l.65-2.44,1.56-1.13.14.16c-.32,1.15-.5,2.12-.5,2.62,0,.79.2,1.44.74,1.87.72.59,1.6.9,2.8.9h.41v2.89h-.52c-2.21,0-3.88-.61-4.65-2.3h-.09c-.77,1.51-2.55,2.3-4.49,2.3h-.43c-1.24,0-1.58-.9-1.58-1.51,0-.54.36-1.38,1.58-1.38h.5ZM501.43,289.2c-.92-.88-1.74-1.6-2.64-2.35.59-.81,1.22-1.56,1.78-2.14.92.72,1.69,1.47,2.57,2.41-.63.9-1.08,1.49-1.71,2.07ZM505.78,288.91c-.92-.88-1.74-1.6-2.64-2.35.59-.81,1.22-1.56,1.78-2.14.92.72,1.69,1.47,2.57,2.41-.63.9-1.08,1.49-1.71,2.07Z"/>
      <path d="M509.12,297.75c1.74,0,3.54-.7,3.88-1.98l.65-2.44,1.56-1.13.14.16c-.32,1.15-.5,2.12-.5,2.62,0,.79.2,1.44.74,1.87.72.59,1.6.9,2.8.9h.41v2.89h-.52c-2.21,0-3.88-.61-4.65-2.3h-.09c-.77,1.51-2.55,2.3-4.49,2.3h-.43c-1.24,0-1.58-.9-1.58-1.51,0-.54.36-1.38,1.58-1.38h.5ZM513.04,284.13c.92.68,1.83,1.49,2.71,2.41-.5.81-1.11,1.56-1.87,2.21-.88-.83-1.76-1.56-2.66-2.32.61-.81,1.22-1.6,1.83-2.3Z"/>
      <path d="M524.25,298.7c-1.6,1.33-2.98,1.94-5.14,1.94h-.32c-1.24,0-1.58-.9-1.58-1.51,0-.54.36-1.38,1.58-1.38h.2c2.25,0,3.74-.63,5.12-1.6-.41-4.38-.5-8.89-.5-12.4,0-.9-.18-2.35-.18-3.41,0-.74.16-1.38.7-1.98.32-.38.77-.79,1.26-1.17l.23.14c-.07.41-.07.68-.07.95.04,1.6.79,3.11,1.74,4.6l-1.65,1.15c0,7.13.09,9,.38,10.98l.09.05c.92-.52,1.83-.79,2.89-.79.95,0,1.89.45,2.57,1.24.68.77,1.08,1.96,1.08,3.11,0,2.8-1.92,4.33-3.56,4.33-2.1,0-3.83-1.69-4.74-4.26l-.11.02ZM530.13,300.44c.43,0,.81-.16,1.11-.41,0-.79-.34-1.49-.83-2.1-.43-.54-1.13-1.02-2.12-1.02-.63,0-1.31.16-1.83.5.54,1.74,2.21,3.02,3.68,3.02Z"/>
      <path d="M537.73,301.02c.23-1.42.25-3.02.25-4.51v-2.21c0-4.13-.45-10.13-.81-14.03.63-.81,1.51-1.76,2.21-2.39l.2.07c.47,4.92.59,10.62.59,15.88,0,1.38-.04,2.73-.16,3.72-.07,1.24-.68,2.19-1.98,3.63l-.29-.16Z"/>
      <path d="M562.66,298.5c-2.37,0-4.1-.83-4.1-2.64,0-.65.23-1.56.72-2.64.9-1.96,3.34-4.06,7.22-6.2l-.13-1.69c.56-.65,1.17-1.31,1.78-1.85h.25c.09,3.5.11,7.01.14,10.51,0,1.53.18,2.59.86,3.18.52.45,1.38.59,2.37.59h.54v2.89h-.5c-2.21,0-3.81-.59-4.67-3.13-1.29.56-2.71.99-4.47.99ZM566.65,289.52c-4.01,2.07-6.11,3.74-6.11,4.94,0,.88,1.35,1.26,2.89,1.26.97,0,2.01-.2,3.34-.63l-.11-5.57ZM563.99,281.54c-.92-.88-1.74-1.6-2.64-2.35.59-.81,1.22-1.56,1.78-2.14.92.72,1.69,1.47,2.57,2.41-.63.9-1.08,1.49-1.71,2.07ZM568.34,281.24c-.92-.88-1.74-1.6-2.64-2.35.59-.81,1.22-1.56,1.78-2.14.92.72,1.69,1.47,2.57,2.41-.63.9-1.08,1.49-1.71,2.07Z"/>
      <path d="M573.71,297.75c.86,0,2.05-.11,3.34-.47v-.11c-1.58-1.04-2.64-2.46-2.64-4.42,0-.97.36-1.94.97-2.95,1.06-1.76,2.68-3.02,4.67-3.02,2.1,0,3.83,1.38,5.01,3.68l-.43.45c-1.22-1.04-2.39-1.44-4.04-1.44-2.39,0-4.13,1.1-4.13,1.89,0,1.06.63,2.19,1.94,3.2.88.68,2.08,1.22,2.73,1.22,1.71,0,3.77-.7,6.45-1.6l.11.11-1.2,2.8c-3.54,1.26-5.25,1.44-8.01,2.35-1.94.63-3.7,1.22-5.5,1.22h-.7c-1.24,0-1.58-.9-1.58-1.51,0-.54.36-1.38,1.58-1.38h1.42Z"/>
      <path d="M597.82,300.64h-.25c-1.78,0-2.93-.36-3.86-1.29-1.38-1.4-1.4-3-1.4-6.31,0-4.29-.25-8.77-.59-13.55.77-.83,1.47-1.58,2.12-2.1l.16.09c.36,4.94.36,10.78.36,16.33v1.29c0,1.44.81,2.1,1.69,2.41.56.2,1.15.25,1.44.25h.32v2.89Z"/>
      <path d="M598.31,297.75c1.74,0,3.54-.7,3.88-1.98l.65-2.44,1.56-1.13.14.16c-.32,1.15-.5,2.12-.5,2.62,0,.79.2,1.44.74,1.87.72.59,1.6.9,2.8.9h.41v2.89h-.52c-2.21,0-3.88-.61-4.65-2.3h-.09c-.77,1.51-2.55,2.3-4.49,2.3h-.43c-1.24,0-1.58-.9-1.58-1.51,0-.54.36-1.38,1.58-1.38h.5ZM602.24,284.13c.92.68,1.83,1.49,2.71,2.41-.5.81-1.11,1.56-1.87,2.21-.88-.83-1.76-1.56-2.66-2.32.61-.81,1.22-1.6,1.83-2.3Z"/>
      <path d="M608.48,297.75c1.92,0,3.45-.63,3.72-1.98.18-.88.36-1.74.59-2.57.5-.47.99-.83,1.49-1.17l.14.14c-.2.72-.36,1.44-.36,2.12,0,1.17.29,1.87,1.24,2.5,1.29-1.96,2.68-3.95,4.67-5.68,1.44-1.26,3.04-2.32,5.05-2.32,3.2,0,5.1,2.35,5.1,4.98,0,1.29-.5,2.68-1.15,3.99h3v2.89h-.59c-2.25,0-4.35-.23-6.74-.79-1.38.43-2.93.79-5.25.79-2.93,0-5.14-.7-6.38-2.37h-.07c-1.22,1.89-3.16,2.37-4.67,2.37h-.27c-1.24,0-1.58-.9-1.58-1.51,0-.54.36-1.38,1.58-1.38h.5ZM620.68,297.75c2.28,0,4.65-.52,5.86-1.01,1.11-.45,1.85-1.04,1.85-1.69-.29-1.94-2.21-3.36-4.22-3.36-2.66,0-5.14,2.19-7.62,5.59.81.27,2.12.47,4.13.47Z"/>
      <path d="M632.46,297.75c.72,0,1.56-.09,2.53-.61.79-.45,1.2-1.26,1.2-2.44-.05-3.61-.29-7.56-.65-11.71-.09-1.04-.23-1.98-.23-2.82,0-.5.23-1.01.68-1.51.32-.38.74-.81,1.24-1.24l.16.11c-.04,1.47.65,3.23,1.83,5.16-.41.38-.88.77-1.42,1.15.09,2.59.29,5.32.29,7.83s-.25,4.31-.9,5.66c-.47,1.15-1.02,2.1-2.05,2.62-.88.45-1.94.68-2.82.68h-.34c-1.24,0-1.58-.9-1.58-1.51,0-.54.36-1.38,1.58-1.38h.5Z"/>
      <path d="M660.85,298.5c-2.37,0-4.1-.83-4.1-2.64,0-.65.23-1.56.72-2.64.9-1.96,3.34-4.06,7.22-6.2l-.13-1.69c.56-.65,1.17-1.31,1.78-1.85h.25c.09,3.5.11,7.01.14,10.51,0,1.53.18,2.59.86,3.18.52.45,1.38.59,2.37.59h.54v2.89h-.5c-2.21,0-3.81-.59-4.67-3.13-1.29.56-2.71.99-4.47.99ZM664.85,289.52c-4.01,2.07-6.11,3.74-6.11,4.94,0,.88,1.35,1.26,2.89,1.26.97,0,2.01-.2,3.34-.63l-.11-5.57ZM662.19,281.54c-.92-.88-1.74-1.6-2.64-2.35.59-.81,1.22-1.56,1.78-2.14.92.72,1.69,1.47,2.57,2.41-.63.9-1.08,1.49-1.71,2.07ZM666.54,281.24c-.92-.88-1.74-1.6-2.64-2.35.59-.81,1.22-1.56,1.78-2.14.92.72,1.69,1.47,2.57,2.41-.63.9-1.08,1.49-1.71,2.07Z"/>
      <path d="M670.98,297.75c1.74,0,3.54-.7,3.88-1.98l.65-2.44,1.56-1.13.14.16c-.32,1.15-.5,2.12-.5,2.62,0,.79.2,1.44.74,1.87.72.59,1.6.9,2.8.9h.41v2.89h-.52c-2.21,0-3.88-.61-4.65-2.3h-.09c-.77,1.51-2.55,2.3-4.49,2.3h-.43c-1.24,0-1.58-.9-1.58-1.51,0-.54.36-1.38,1.58-1.38h.5ZM673.46,289.2c-.92-.88-1.74-1.6-2.64-2.35.59-.81,1.22-1.56,1.78-2.14.92.72,1.69,1.47,2.57,2.41-.63.9-1.08,1.49-1.71,2.07ZM674.68,284.4c-.92-.88-1.74-1.6-2.64-2.35.59-.81,1.22-1.56,1.78-2.14.92.72,1.69,1.47,2.57,2.41-.63.9-1.08,1.49-1.71,2.07ZM677.81,288.91c-.92-.88-1.74-1.6-2.64-2.35.59-.81,1.22-1.56,1.78-2.14.92.72,1.69,1.47,2.57,2.41-.63.9-1.08,1.49-1.71,2.07Z"/>
      <path d="M681.04,297.75c1.92,0,3.45-.07,4.44-.43.79-.29,1.29-.61,1.29-.99,0-1.06-1.08-3.27-2.25-5.57.54-.97,1.11-1.83,1.69-2.55h.11c1.04,1.83,2.25,4.65,2.25,6.88,0,1.69-.68,3-1.58,4.19-1.01,1.01-2.62,1.35-6.07,1.35h-.27c-1.24,0-1.58-.9-1.58-1.51,0-.54.36-1.38,1.58-1.38h.38ZM683.25,309.64c-.92-.88-1.74-1.6-2.64-2.34.59-.81,1.22-1.56,1.78-2.14.92.72,1.69,1.47,2.57,2.41-.63.9-1.08,1.49-1.71,2.07ZM687.6,309.34c-.92-.88-1.74-1.6-2.64-2.35.59-.81,1.22-1.56,1.78-2.14.92.72,1.69,1.47,2.57,2.41-.63.9-1.08,1.49-1.71,2.07Z"/>
      <path d="M708.89,300.64h-.43c-2.03,0-3.72-.86-4.6-3.68h-.11c-.18.86-.65,1.58-1.62,2.17-1.49.9-3.02,1.51-4.53,1.51-2.53,0-3.92-1.53-3.92-4.17,0-.56.02-1.1.07-1.67l.88-.07c.09,1.87,1.01,3.02,3.18,3.02,1.2,0,2.62-.52,3.68-1.13.83-.47,1.47-1.15,1.47-1.69,0-1.53-.81-4.53-1.87-8.39.52-.79,1.01-1.6,1.6-2.32l.14.09c.83,3.25,1.53,6.72,2.14,10.04.41,2.23,1.87,3.41,3.56,3.41h.38v2.89Z"/>
      <path d="M722.33,293.58c-2.62-.97-5.01-1.58-7.08-1.58-1.29,0-2.23.41-2.86,1.13l.27,1.13-.68,2.03h-.23l-1.11-2.98c.18-2.5,2.19-4.06,4.89-4.06,1.51,0,3.83.52,7.4,1.94,1.08.43,2.44.74,3.86.74h1.96l.04.04-1.4,2.32c-1.8,0-3.07.38-3.81.86l-3.77,2.46c-3.13,2.01-6.25,3.02-9.9,3.02h-1.04c-1.24,0-1.58-.9-1.58-1.51,0-.54.36-1.38,1.58-1.38h1.38c3.65,0,7.4-1.29,12.04-4.08l.02-.09ZM724.86,295.11l.07.02c.09,1.92,1.67,2.62,3.99,2.62h.61v2.89h-.7c-2.91,0-4.85-1.01-4.85-3.72,0-.43.02-.83.07-1.26l.81-.54Z"/>
      <path d="M730.02,297.75c.72,0,1.56-.09,2.53-.61.79-.45,1.2-1.26,1.2-2.44-.05-3.61-.29-7.56-.65-11.71-.09-1.04-.23-1.98-.23-2.82,0-.5.23-1.01.68-1.51.32-.38.74-.81,1.24-1.24l.16.11c-.05,1.47.65,3.23,1.83,5.16-.41.38-.88.77-1.42,1.15.09,2.59.29,5.32.29,7.83s-.25,4.31-.9,5.66c-.47,1.15-1.02,2.1-2.05,2.62-.88.45-1.94.68-2.82.68h-.34c-1.24,0-1.58-.9-1.58-1.51,0-.54.36-1.38,1.58-1.38h.5Z"/>
      <path d="M741.59,301.02c.23-1.42.25-3.02.25-4.51v-2.21c0-4.13-.45-10.13-.81-14.03.63-.81,1.51-1.76,2.21-2.39l.2.07c.47,4.92.59,10.62.59,15.88,0,1.38-.04,2.73-.16,3.72-.07,1.24-.68,2.19-1.98,3.63l-.29-.16Z"/>
    </g>
  </g>
</svg>