<?xml version="1.0" encoding="UTF-8"?>
<svg id="Layer_2" data-name="Layer 2" xmlns="http://www.w3.org/2000/svg" xmlns:xlink="http://www.w3.org/1999/xlink" viewBox="0 0 350 350">
  <defs>
    <style>
      .cls-1 {
        fill: url(#linear-gradient-2);
      }

      .cls-2 {
        fill: url(#linear-gradient-4);
      }

      .cls-3 {
        fill: url(#linear-gradient-3);
      }

      .cls-4 {
        fill: url(#linear-gradient-5);
      }

      .cls-5 {
        fill: url(#linear-gradient-6);
      }

      .cls-6 {
        fill: url(#linear-gradient);
      }
    </style>
    <linearGradient id="linear-gradient" x1="19.78" y1="166.93" x2="138.9" y2="146.69" gradientUnits="userSpaceOnUse">
      <stop offset=".32" stop-color="#2566ae"/>
      <stop offset=".69" stop-color="#007dbf"/>
    </linearGradient>
    <linearGradient id="linear-gradient-2" x1="60.1" y1="95" x2="192.94" y2="95" gradientUnits="userSpaceOnUse">
      <stop offset="0" stop-color="#2566ae"/>
      <stop offset="1" stop-color="#007dbf"/>
    </linearGradient>
    <linearGradient id="linear-gradient-3" x1="206.44" y1="87.25" x2="299.21" y2="87.25" gradientUnits="userSpaceOnUse">
      <stop offset="0" stop-color="#3d4f9f"/>
      <stop offset=".27" stop-color="#2367af"/>
      <stop offset=".72" stop-color="#007abd"/>
    </linearGradient>
    <linearGradient id="linear-gradient-4" x1="185.63" y1="156.99" x2="339.28" y2="156.99" xlink:href="#linear-gradient-3"/>
    <linearGradient id="linear-gradient-5" x1="169.3" y1="231.08" x2="304.74" y2="231.08" xlink:href="#linear-gradient-3"/>
    <linearGradient id="linear-gradient-6" x1="64.1" y1="194.38" x2="158.02" y2="235.73" gradientUnits="userSpaceOnUse">
      <stop offset="0" stop-color="#3d4f9f"/>
      <stop offset=".27" stop-color="#2367af"/>
      <stop offset=".85" stop-color="#007dbf"/>
    </linearGradient>
  </defs>
  <path class="cls-6" d="M44.16,106.52c31.29,13.87,62.58,27.75,93.87,41.62-8.56,19.78-17.12,39.56-25.68,59.33-31.71-12.69-63.43-25.39-95.14-38.08,8.98-20.96,17.97-41.92,26.95-62.88Z"/>
  <path class="cls-1" d="M191.17,48.95c-43.69,14.46-87.38,28.93-131.07,43.39,33.65,16.24,67.3,32.47,100.96,48.71,10.63-3.84,21.25-7.68,31.88-11.51-.59-26.86-1.18-53.73-1.77-80.59Z"/>
  <path class="cls-3" d="M206.44,50.28v73.95c30.92-11.44,61.84-22.88,92.76-34.32-30.92-13.21-61.84-26.42-92.76-39.63Z"/>
  <path class="cls-2" d="M185.63,154.34c42.8-15.05,85.61-30.11,128.41-45.16,8.41,19.34,16.83,38.67,25.24,58.01-42.36,12.55-84.72,25.09-127.08,37.64-8.86-16.83-17.71-33.65-26.57-50.48Z"/>
  <path class="cls-4" d="M172.35,161.13c9.74,24.27,19.48,48.53,29.22,72.8,34.39-12.9,68.78-25.8,103.18-38.71v61.55c-44.87,14.76-89.74,29.52-134.61,44.28-.28-46.65-.55-93.29-.83-139.94,1.01,0,2.03.01,3.04.02Z"/>
  <path class="cls-5" d="M148.47,161.22c1.4-.04,2.8-.07,4.21-.11.04,46.57.07,93.13.11,139.7-2.77-.04-5.53-.07-8.3-.11-31.39-13.37-62.78-26.74-94.17-40.11l-.15-62.14c24.41,11.93,48.83,23.86,73.24,35.8,8.35-24.34,16.7-48.68,25.05-73.03Z"/>
</svg>